<?xml version="1.0" encoding="UTF-8"?>
<svg xmlns="http://www.w3.org/2000/svg" viewBox="0 0 128 128" width="128px" height="128px">
<g id="surface269011">
<path style=" stroke:none;fill-rule:nonzero;fill:rgb(0%,39.607844%,74.117649%);fill-opacity:1;" d="M 41.800781 37 C 26.800781 37 14.5 49.101562 14.5 64 C 14.5 78.898438 26.699219 91 41.800781 91 C 52.699219 91 62.101562 84.601562 66.5 75.402344 L 70.097656 75.402344 C 71.800781 75.402344 73.199219 72.5 73.199219 72.5 C 74.398438 69.898438 75 67 75 64 C 75 62.101562 74.597656 60.300781 74.199219 58.601562 L 101.398438 58.601562 L 106.300781 62.5 L 100.898438 69.402344 L 96.300781 69.402344 C 94.601562 69.402344 93.300781 70.699219 93.300781 72.402344 C 93.300781 74.101562 94.601562 75.402344 96.300781 75.402344 L 102.402344 75.402344 C 103.300781 75.402344 104.199219 75 104.800781 74.199219 L 112.902344 63.800781 C 113.902344 62.5 113.699219 60.699219 112.402344 59.699219 L 104.300781 53.300781 C 103.800781 52.902344 103.101562 52.699219 102.402344 52.699219 L 66.402344 52.699219 C 62.101562 43.398438 52.699219 37 41.800781 37 Z M 41.800781 43 C 53.601562 43 63 52.398438 63 64 C 63 75.601562 53.5 85 41.800781 85 C 30 85 20.5 75.601562 20.5 64 C 20.5 52.398438 30 43 41.800781 43 Z M 33 55 C 28 55 23.902344 59 23.902344 64 C 23.902344 69 28 73 33 73 C 38 73 42.101562 69 42.101562 64 C 42.101562 59 38 55 33 55 Z M 33 61 C 34.699219 61 36.101562 62.300781 36.101562 64 C 36.101562 65.699219 34.699219 67 33 67 C 31.300781 67 29.902344 65.699219 29.902344 64 C 29.902344 62.300781 31.300781 61 33 61 Z M 80.097656 69.402344 C 78.398438 69.402344 77.101562 70.699219 77.101562 72.402344 C 77.101562 74.101562 78.398438 75.402344 80.101562 75.402344 L 86.199219 75.402344 C 87.898438 75.402344 89.199219 74.101562 89.199219 72.402344 C 89.199219 70.699219 87.898438 69.402344 86.199219 69.402344 Z M 80.097656 69.402344 "/>
</g>
</svg>
